<?xml version="1.0" standalone="no"?>
<!DOCTYPE svg PUBLIC "-//W3C//DTD SVG 20010904//EN"
 "http://www.w3.org/TR/2001/REC-SVG-20010904/DTD/svg10.dtd">
<svg version="1.0" xmlns="http://www.w3.org/2000/svg"
 width="576.000000pt" height="576.000000pt" viewBox="0 0 576.000000 576.000000"
 preserveAspectRatio="xMidYMid meet">

<g transform="translate(0.000000,576.000000) scale(0.100000,-0.100000)"
fill="#000000" stroke="none">
<path d="M2490 4625 c-10 -12 -7 -29 14 -86 14 -38 26 -79 26 -89 0 -18 -1
-18 -43 0 -84 37 -425 112 -469 102 -22 -4 -22 -19 -3 -65 21 -50 18 -123 -5
-175 -12 -26 -72 -97 -154 -181 -86 -90 -146 -160 -167 -200 -19 -33 -37 -61
-40 -61 -3 0 -27 18 -52 41 -70 61 -81 53 -85 -56 -3 -81 5 -139 24 -190 6
-15 1 -16 -42 -10 -27 4 -77 18 -112 31 -61 23 -92 23 -92 0 1 -45 67 -208
114 -279 33 -51 34 -54 24 -107 -13 -69 3 -245 36 -389 l23 -103 -21 -12 c-12
-7 -42 -25 -68 -39 -55 -32 -130 -113 -164 -179 -55 -108 -69 -242 -35 -359
23 -81 39 -112 89 -173 83 -100 199 -163 322 -175 l64 -6 49 -85 c339 -591
741 -893 1286 -966 285 -37 532 0 716 108 39 23 106 77 151 122 178 179 267
394 350 846 15 80 29 181 31 225 5 75 2 88 -32 180 -26 67 -41 128 -46 185
-24 241 -48 352 -107 497 l-21 51 23 6 c39 10 40 35 2 92 -28 42 -45 56 -85
71 -39 14 -58 30 -86 68 l-35 50 42 7 c58 10 133 49 212 109 98 74 99 91 7
109 -29 5 -73 19 -97 29 -39 18 -44 24 -44 52 0 45 36 103 81 128 47 27 49 45
7 71 -57 35 -138 36 -260 3 -10 -2 -18 0 -18 5 0 20 58 65 128 99 40 19 76 42
79 50 8 20 -42 62 -127 107 -88 46 -166 67 -253 68 -60 1 -83 -4 -124 -25
l-51 -25 -7 71 c-9 94 -37 157 -92 208 -51 47 -158 100 -206 103 l-32 1 3 -60
c2 -33 0 -85 -4 -115 l-7 -55 -9 53 c-11 73 -31 107 -105 180 -46 45 -71 62
-86 60 -21 -3 -22 -6 -18 -108 l3 -104 -55 50 c-59 54 -279 224 -313 242 -17
9 -24 8 -34 -3z m35 -1136 c112 -11 205 -31 410 -89 175 -49 245 -61 350 -61
98 -1 144 18 197 81 19 22 38 40 43 40 15 0 134 -102 200 -172 l69 -72 -65
-13 c-114 -23 -229 -90 -229 -132 0 -40 24 -45 113 -22 56 14 114 21 181 21
l97 0 44 -93 c74 -158 93 -242 124 -532 6 -61 19 -115 42 -170 42 -105 42
-154 0 -385 -90 -497 -219 -742 -461 -873 -274 -148 -755 -117 -1108 73 -261
141 -503 403 -716 775 -31 55 -65 106 -74 113 -8 6 -43 12 -76 12 -111 0 -191
35 -268 118 -63 67 -91 145 -91 247 -1 128 51 229 152 296 54 36 162 69 223
69 l45 0 100 -237 c83 -199 103 -239 121 -241 16 -3 25 4 32 22 5 15 38 162
72 329 56 273 62 314 62 422 0 96 -5 144 -28 239 l-28 119 39 39 c21 22 58 53
83 69 45 30 46 30 145 24 55 -3 145 -11 200 -16z"/>
<path d="M2853 3210 c-46 -11 -79 -34 -113 -82 -33 -45 -37 -69 -15 -88 11
-10 37 -7 126 10 133 27 288 25 381 -5 47 -15 60 -16 72 -5 26 20 18 46 -21
79 -87 72 -312 119 -430 91z"/>
<path d="M2980 2993 c-95 -49 -87 -193 13 -232 105 -40 206 61 166 166 -27 70
-111 101 -179 66z m47 -59 c8 -21 -19 -46 -40 -38 -17 6 -23 35 -10 47 12 13
44 7 50 -9z"/>
<path d="M3724 2996 c-46 -21 -74 -62 -74 -110 0 -116 122 -174 210 -100 108
91 -7 269 -136 210z m34 -74 c4 -28 -24 -41 -44 -20 -20 20 -7 50 20 46 13 -2
22 -12 24 -26z"/>
<path d="M3481 2681 c-12 -17 -24 -52 -28 -80 -7 -58 15 -112 96 -235 28 -44
54 -90 57 -103 13 -50 -54 -103 -181 -144 -86 -27 -97 -35 -93 -68 4 -35 46
-39 129 -11 206 68 275 181 194 313 -19 31 -51 83 -70 114 -53 86 -61 122 -39
168 13 27 15 42 7 54 -18 28 -49 25 -72 -8z"/>
<path d="M1537 2472 c-22 -24 -20 -71 6 -161 16 -54 29 -79 50 -95 26 -19 30
-19 55 -5 17 9 28 25 30 43 4 32 -24 158 -44 197 -21 42 -69 52 -97 21z"/>
<path d="M3290 1698 c-41 -10 -133 -22 -205 -26 -105 -6 -130 -10 -130 -22 0
-11 28 -19 115 -32 63 -10 177 -30 253 -44 173 -33 206 -30 286 26 34 24 61
48 61 54 0 7 -21 23 -47 36 -65 32 -223 36 -333 8z m285 -28 c34 -8 -59 -18
-165 -18 -116 0 -122 1 -80 12 37 10 210 15 245 6z m-45 -70 c-8 -5 -37 -10
-65 -10 -27 0 -57 5 -65 10 -10 7 10 10 65 10 55 0 75 -3 65 -10z"/>
</g>
</svg>
